<svg width="100" height="100" viewBox="0 0 100 100" xmlns="http://www.w3.org/2000/svg">
  <defs>
    <linearGradient id="bg" x1="0%" y1="0%" x2="100%" y2="100%">
      <stop offset="0%" style="stop-color:#EC4899;stop-opacity:1" />
      <stop offset="100%" style="stop-color:#BE185D;stop-opacity:1" />
    </linearGradient>
  </defs>
  
  <!-- Fond circulaire -->
  <circle cx="50" cy="50" r="50" fill="url(#bg)"/>
  
  <!-- Tête -->
  <circle cx="50" cy="40" r="20" fill="#FBBF24"/>
  
  <!-- Corps -->
  <rect x="35" y="60" width="30" height="35" rx="15" fill="#FBBF24"/>
  
  <!-- Yeux -->
  <circle cx="45" cy="35" r="3" fill="#1F2937"/>
  <circle cx="55" cy="35" r="3" fill="#1F2937"/>
  
  <!-- Sourcils -->
  <path d="M 42 30 Q 45 28 48 30" stroke="#1F2937" stroke-width="2" fill="none"/>
  <path d="M 52 30 Q 55 28 58 30" stroke="#1F2937" stroke-width="2" fill="none"/>
  
  <!-- Nez -->
  <ellipse cx="50" cy="40" rx="2" ry="3" fill="#F59E0B"/>
  
  <!-- Bouche -->
  <path d="M 45 45 Q 50 48 55 45" stroke="#1F2937" stroke-width="1.5" fill="none"/>
  
  <!-- Cheveux longs -->
  <path d="M 30 25 Q 50 10 70 25 Q 65 35 50 30 Q 35 35 30 25" fill="#1F2937"/>
  <path d="M 25 30 Q 30 40 35 35 Q 30 30 25 30" fill="#1F2937"/>
  <path d="M 65 30 Q 70 40 75 35 Q 70 30 65 30" fill="#1F2937"/>
  
  <!-- Cils -->
  <path d="M 42 32 Q 45 30 48 32" stroke="#1F2937" stroke-width="1" fill="none"/>
  <path d="M 52 32 Q 55 30 58 32" stroke="#1F2937" stroke-width="1" fill="none"/>
</svg>
